<svg width="764" height="764" viewBox="0 0 764 764" fill="none" xmlns="http://www.w3.org/2000/svg">
<rect width="764" height="764" fill="#CBF6DD"/>
<rect x="90" y="180" width="584" height="403" rx="20" fill="white"/>
<line x1="383" y1="603" x2="383" y2="160" stroke="#23CE6B" stroke-width="2"/>
<line x1="70" y1="381" x2="694" y2="381" stroke="#23CE6B" stroke-width="2"/>
<path d="M135.648 234.16C132.432 234.16 130.512 231.984 130.512 228.64C130.512 225.296 132.432 223.12 135.648 223.12C138.816 223.12 140.528 224.784 140.528 227.44V227.584H137.968V227.504C137.968 225.968 137.328 225.44 135.632 225.44C133.824 225.44 133.072 226.096 133.072 228.64C133.072 231.184 133.824 231.84 135.632 231.84C137.328 231.84 137.968 231.312 137.968 229.776V229.696H140.528V229.84C140.528 232.496 138.816 234.16 135.648 234.16ZM146.391 234.16C143.191 234.16 141.239 231.984 141.239 228.64C141.239 225.296 143.191 223.12 146.391 223.12C149.591 223.12 151.527 225.296 151.527 228.64C151.527 231.984 149.591 234.16 146.391 234.16ZM146.391 231.84C148.231 231.84 148.967 231.152 148.967 228.64C148.967 226.128 148.231 225.44 146.391 225.44C144.551 225.44 143.799 226.128 143.799 228.64C143.799 231.152 144.551 231.84 146.391 231.84ZM154.762 234H152.362V223.28H154.922L158.394 228.656L159.29 230.096H159.45L159.418 228.656V223.28H161.818V234H159.258L155.93 228.928L154.89 227.28H154.73L154.762 228.928V234ZM165.442 234H163.042V223.28H165.602L169.074 228.656L169.97 230.096H170.13L170.098 228.656V223.28H172.498V234H169.938L166.61 228.928L165.57 227.28H165.41L165.442 228.928V234ZM181.898 234H173.722V223.28H181.898V225.44H176.122V227.536H181.658V229.68H176.122V231.84H181.898V234ZM187.657 234.16C184.441 234.16 182.521 231.984 182.521 228.64C182.521 225.296 184.441 223.12 187.657 223.12C190.825 223.12 192.537 224.784 192.537 227.44V227.584H189.977V227.504C189.977 225.968 189.337 225.44 187.641 225.44C185.833 225.44 185.081 226.096 185.081 228.64C185.081 231.184 185.833 231.84 187.641 231.84C189.337 231.84 189.977 231.312 189.977 229.776V229.696H192.537V229.84C192.537 232.496 190.825 234.16 187.657 234.16ZM198.14 234H195.74V225.44H192.284V223.28H201.596V225.44H198.14V234ZM212.722 234H204.786V223.28H207.186V231.84H212.722V234ZM215.553 234H213.153V223.28H216.529L218.401 228.288L219.265 231.04H219.425L220.273 228.288L222.065 223.28H225.441V234H223.041V228.928L223.169 226.864H222.993L222.369 228.96L220.753 233.264H217.841L216.225 228.96L215.585 226.864H215.425L215.553 228.928V234ZM231.129 234.16C227.977 234.16 226.521 232.88 226.521 230.512V230.304H228.873V230.464C228.873 231.648 229.305 231.984 231.241 231.984C232.601 231.984 232.937 231.712 232.937 230.992C232.937 230.272 232.777 230.016 231.273 229.76L229.385 229.424C227.337 229.072 226.473 228.032 226.473 226.368C226.473 224.736 227.673 223.12 230.745 223.12C233.801 223.12 235.081 224.704 235.081 226.832V226.96H232.713V226.784C232.713 225.664 232.249 225.296 230.665 225.296C229.289 225.296 228.857 225.6 228.857 226.272C228.857 226.96 229.145 227.12 230.393 227.36L232.297 227.728C234.553 228.16 235.321 229.344 235.321 230.912C235.321 232.624 234.169 234.16 231.129 234.16Z" fill="#157A3F"/>
<path d="M132.528 540H130.032L133.984 529.28H137.472L141.424 540H138.816L137.952 537.616H133.408L132.528 540ZM134.8 533.808L134.192 535.472H137.168L136.56 533.808L135.776 531.392H135.616L134.8 533.808ZM146.26 540.16C143.14 540.16 141.556 538.496 141.556 535.824V529.28H143.94V535.792C143.94 537.328 144.484 537.84 146.26 537.84C148.02 537.84 148.564 537.328 148.564 535.792V529.28H150.964V535.824C150.964 538.496 149.38 540.16 146.26 540.16ZM156.982 540H154.582V531.44H151.126V529.28H160.438V531.44H156.982V540ZM163.067 540H160.667V529.28H163.067V533.536H167.739V529.28H170.139V540H167.739V535.68H163.067V540ZM179.539 540H171.363V529.28H179.539V531.44H173.763V533.536H179.299V535.68H173.763V537.84H179.539V540ZM182.88 540H180.48V529.28H183.04L186.512 534.656L187.408 536.096H187.568L187.536 534.656V529.28H189.936V540H187.376L184.048 534.928L183.008 533.28H182.848L182.88 534.928V540ZM196.015 540H193.615V531.44H190.159V529.28H199.471V531.44H196.015V540ZM202.1 540H199.7V529.28H202.1V540ZM208.119 540.16C204.903 540.16 202.983 537.984 202.983 534.64C202.983 531.296 204.903 529.12 208.119 529.12C211.287 529.12 212.999 530.784 212.999 533.44V533.584H210.439V533.504C210.439 531.968 209.799 531.44 208.103 531.44C206.295 531.44 205.543 532.096 205.543 534.64C205.543 537.184 206.295 537.84 208.103 537.84C209.799 537.84 210.439 537.312 210.439 535.776V535.696H212.999V535.84C212.999 538.496 211.287 540.16 208.119 540.16ZM215.148 540H212.652L216.604 529.28H220.092L224.044 540H221.436L220.572 537.616H216.028L215.148 540ZM217.42 533.808L216.812 535.472H219.788L219.18 533.808L218.396 531.392H218.236L217.42 533.808ZM227.954 540H225.554V531.44H222.098V529.28H231.41V531.44H227.954V540ZM234.038 540H231.638V529.28H234.038V540ZM240.074 540.16C236.874 540.16 234.922 537.984 234.922 534.64C234.922 531.296 236.874 529.12 240.074 529.12C243.274 529.12 245.21 531.296 245.21 534.64C245.21 537.984 243.274 540.16 240.074 540.16ZM240.074 537.84C241.914 537.84 242.65 537.152 242.65 534.64C242.65 532.128 241.914 531.44 240.074 531.44C238.234 531.44 237.482 532.128 237.482 534.64C237.482 537.152 238.234 537.84 240.074 537.84ZM248.445 540H246.045V529.28H248.605L252.077 534.656L252.973 536.096H253.133L253.101 534.656V529.28H255.501V540H252.941L249.613 534.928L248.573 533.28H248.413L248.445 534.928V540Z" fill="#157A3F"/>
<path d="M503.085 234H500.685V223.28H505.613C508.173 223.28 509.597 224.464 509.597 226.544C509.597 228.288 508.733 229.328 506.893 229.488V229.648C507.821 229.936 508.269 230.496 508.685 231.312L510.045 234H507.245L505.981 231.52C505.501 230.592 505.181 230.192 504.045 230.192H503.085V234ZM503.085 225.44V228.208H505.725C506.845 228.208 507.213 227.872 507.213 226.816C507.213 225.792 506.845 225.44 505.725 225.44H503.085ZM518.588 234H510.412V223.28H518.588V225.44H512.812V227.536H518.348V229.68H512.812V231.84H518.588V234ZM521.929 234H519.529V223.28H524.457C526.761 223.28 528.409 224.672 528.409 227.056C528.409 229.456 526.761 230.816 524.457 230.816H521.929V234ZM524.553 225.44H521.929V228.672H524.553C525.657 228.672 526.025 228.336 526.025 227.056C526.025 225.76 525.657 225.44 524.553 225.44ZM534.028 234.16C530.828 234.16 528.876 231.984 528.876 228.64C528.876 225.296 530.828 223.12 534.028 223.12C537.228 223.12 539.164 225.296 539.164 228.64C539.164 231.984 537.228 234.16 534.028 234.16ZM534.028 231.84C535.868 231.84 536.604 231.152 536.604 228.64C536.604 226.128 535.868 225.44 534.028 225.44C532.188 225.44 531.436 226.128 531.436 228.64C531.436 231.152 532.188 231.84 534.028 231.84ZM542.399 234H539.999V223.28H544.927C547.487 223.28 548.911 224.464 548.911 226.544C548.911 228.288 548.047 229.328 546.207 229.488V229.648C547.135 229.936 547.583 230.496 547.999 231.312L549.359 234H546.559L545.295 231.52C544.815 230.592 544.495 230.192 543.359 230.192H542.399V234ZM542.399 225.44V228.208H545.039C546.159 228.208 546.527 227.872 546.527 226.816C546.527 225.792 546.159 225.44 545.039 225.44H542.399ZM554.643 234H552.243V225.44H548.787V223.28H558.099V225.44H554.643V234ZM560.728 234H558.328V223.28H560.728V234ZM564.361 234H561.961V223.28H564.521L567.993 228.656L568.889 230.096H569.049L569.017 228.656V223.28H571.417V234H568.857L565.529 228.928L564.489 227.28H564.329L564.361 228.928V234ZM576.979 234.16C573.907 234.16 572.227 232.064 572.227 228.64C572.227 225.296 574.179 223.12 577.443 223.12C580.627 223.12 582.339 224.688 582.339 227.232V227.312H579.795V227.248C579.795 225.904 579.139 225.44 577.395 225.44C575.555 225.44 574.787 226.112 574.787 228.64C574.787 231.216 575.603 231.872 577.619 231.872C579.315 231.872 580.067 231.584 580.067 230.304H577.139V228.304H582.371V234H580.147V232.368H580.051C579.731 233.184 578.883 234.16 576.979 234.16ZM591.449 234H589.049V225.44H585.593V223.28H594.905V225.44H591.449V234ZM599.796 234.16C596.596 234.16 594.644 231.984 594.644 228.64C594.644 225.296 596.596 223.12 599.796 223.12C602.996 223.12 604.932 225.296 604.932 228.64C604.932 231.984 602.996 234.16 599.796 234.16ZM599.796 231.84C601.636 231.84 602.372 231.152 602.372 228.64C602.372 226.128 601.636 225.44 599.796 225.44C597.956 225.44 597.204 226.128 597.204 228.64C597.204 231.152 597.956 231.84 599.796 231.84ZM610.788 234.16C607.588 234.16 605.636 231.984 605.636 228.64C605.636 225.296 607.588 223.12 610.788 223.12C613.988 223.12 615.924 225.296 615.924 228.64C615.924 231.984 613.988 234.16 610.788 234.16ZM610.788 231.84C612.628 231.84 613.364 231.152 613.364 228.64C613.364 226.128 612.628 225.44 610.788 225.44C608.948 225.44 608.196 226.128 608.196 228.64C608.196 231.152 608.948 231.84 610.788 231.84ZM624.695 234H616.759V223.28H619.159V231.84H624.695V234ZM629.454 234.16C626.302 234.16 624.846 232.88 624.846 230.512V230.304H627.198V230.464C627.198 231.648 627.63 231.984 629.566 231.984C630.926 231.984 631.262 231.712 631.262 230.992C631.262 230.272 631.102 230.016 629.598 229.76L627.71 229.424C625.662 229.072 624.798 228.032 624.798 226.368C624.798 224.736 625.998 223.12 629.07 223.12C632.126 223.12 633.406 224.704 633.406 226.832V226.96H631.038V226.784C631.038 225.664 630.574 225.296 628.99 225.296C627.614 225.296 627.182 225.6 627.182 226.272C627.182 226.96 627.47 227.12 628.718 227.36L630.622 227.728C632.878 228.16 633.646 229.344 633.646 230.912C633.646 232.624 632.494 234.16 629.454 234.16Z" fill="#157A3F"/>
<path d="M570.514 540.16C567.362 540.16 565.906 538.88 565.906 536.512V536.304H568.258V536.464C568.258 537.648 568.69 537.984 570.626 537.984C571.986 537.984 572.322 537.712 572.322 536.992C572.322 536.272 572.162 536.016 570.658 535.76L568.77 535.424C566.722 535.072 565.858 534.032 565.858 532.368C565.858 530.736 567.058 529.12 570.13 529.12C573.186 529.12 574.466 530.704 574.466 532.832V532.96H572.098V532.784C572.098 531.664 571.634 531.296 570.05 531.296C568.674 531.296 568.242 531.6 568.242 532.272C568.242 532.96 568.53 533.12 569.778 533.36L571.682 533.728C573.938 534.16 574.706 535.344 574.706 536.912C574.706 538.624 573.554 540.16 570.514 540.16ZM580.008 540.16C576.888 540.16 575.304 538.496 575.304 535.824V529.28H577.688V535.792C577.688 537.328 578.232 537.84 580.008 537.84C581.768 537.84 582.312 537.328 582.312 535.792V529.28H584.712V535.824C584.712 538.496 583.128 540.16 580.008 540.16ZM588.276 540H585.876V529.28H590.804C593.108 529.28 594.756 530.672 594.756 533.056C594.756 535.456 593.108 536.816 590.804 536.816H588.276V540ZM590.9 531.44H588.276V534.672H590.9C592.004 534.672 592.372 534.336 592.372 533.056C592.372 531.76 592.004 531.44 590.9 531.44ZM597.799 540H595.399V529.28H600.327C602.631 529.28 604.28 530.672 604.28 533.056C604.28 535.456 602.631 536.816 600.327 536.816H597.799V540ZM600.423 531.44H597.799V534.672H600.423C601.527 534.672 601.895 534.336 601.895 533.056C601.895 531.76 601.527 531.44 600.423 531.44ZM609.898 540.16C606.698 540.16 604.746 537.984 604.746 534.64C604.746 531.296 606.698 529.12 609.898 529.12C613.098 529.12 615.034 531.296 615.034 534.64C615.034 537.984 613.098 540.16 609.898 540.16ZM609.898 537.84C611.738 537.84 612.474 537.152 612.474 534.64C612.474 532.128 611.738 531.44 609.898 531.44C608.058 531.44 607.306 532.128 607.306 534.64C607.306 537.152 608.058 537.84 609.898 537.84ZM618.269 540H615.869V529.28H620.797C623.357 529.28 624.781 530.464 624.781 532.544C624.781 534.288 623.917 535.328 622.077 535.488V535.648C623.005 535.936 623.453 536.496 623.869 537.312L625.229 540H622.429L621.165 537.52C620.685 536.592 620.365 536.192 619.229 536.192H618.269V540ZM618.269 531.44V534.208H620.909C622.029 534.208 622.397 533.872 622.397 532.816C622.397 531.792 622.029 531.44 620.909 531.44H618.269ZM630.513 540H628.113V531.44H624.657V529.28H633.969V531.44H630.513V540Z" fill="#157A3F"/>
<g clip-path="url(#clip0_15366_1074)">
<rect x="335.527" y="335.529" width="92.4737" height="92.4737" rx="16.4398" fill="white"/>
<path d="M383.613 366.966L398.305 365.277V391.832L383.613 397.843V366.927V366.966ZM381.767 359.581L361.457 361.309V393.797L381.767 403.932L402.076 393.797V361.309L381.767 359.581Z" fill="#052438"/>
<path d="M412.802 428.009H350.734C342.367 428.009 335.531 421.213 335.531 412.806V350.738C335.531 342.331 342.327 335.535 350.734 335.535H412.802C421.17 335.535 428.005 342.331 428.005 350.738V412.806C428.005 421.173 421.209 428.009 412.802 428.009ZM350.734 339.306C344.449 339.306 339.302 344.452 339.302 350.738V412.806C339.302 419.091 344.409 424.198 350.695 424.198H412.763C419.048 424.198 424.155 419.091 424.155 412.806V350.738C424.155 344.452 419.048 339.345 412.763 339.345H350.734V339.306Z" fill="#052438"/>
</g>
<defs>
<clipPath id="clip0_15366_1074">
<rect width="92.4737" height="92.4737" fill="white" transform="translate(335.527 335.526)"/>
</clipPath>
</defs>
</svg>
