<svg width="864" height="761" viewBox="0 0 864 761" fill="none" xmlns="http://www.w3.org/2000/svg">
<g clip-path="url(#clip0_16873_3527)">
<rect x="179.281" y="100.797" width="493" height="213" rx="20" transform="rotate(-3.93081 179.281 100.797)" fill="white"/>
<rect x="193.242" y="450.25" width="493" height="213" rx="20" transform="rotate(3.63121 193.242 450.25)" fill="white"/>
<rect x="215.375" y="188.529" width="433" height="43" rx="21.5" transform="rotate(-3.93081 215.375 188.529)" fill="#E6ECF2"/>
<rect x="217.477" y="541.969" width="433" height="43" rx="21.5" transform="rotate(3.63121 217.477 541.969)" fill="#E6ECF2"/>
<rect x="219.008" y="241.404" width="359" height="43" rx="21.5" transform="rotate(-3.93081 219.008 241.404)" fill="#E6ECF2"/>
<rect x="214.125" y="594.863" width="359" height="43" rx="21.5" transform="rotate(3.63121 214.125 594.863)" fill="#E6ECF2"/>
<path d="M225.566 157.757L221.723 158.021L220.309 137.442L212.12 138.004L211.881 134.52L232.101 133.131L232.34 136.615L224.152 137.178L225.566 157.757ZM237.546 157.295C234.35 157.514 231.758 156.032 231.543 152.908C231.341 149.963 233.39 148.27 237.16 147.47L243.345 146.107L243.278 145.137C243.095 142.479 241.82 141.773 239.019 141.966C236.181 142.161 235.13 143.135 235.293 145.505L235.33 146.044L231.594 146.301L231.57 145.942C231.296 141.955 234.223 138.867 239 138.539C243.992 138.196 246.713 141.04 247.012 145.386L247.757 156.232L244.166 156.479L243.973 153.678L243.794 153.69C242.868 155.449 240.922 157.063 237.546 157.295ZM235.295 152.361C235.391 153.762 236.328 154.275 238.591 154.12C241.105 153.947 243.801 152.751 243.555 149.16L243.532 148.836L237.917 150.088C235.889 150.516 235.203 151.033 235.295 152.361ZM254.309 155.782L250.753 156.026L249.1 131.963L252.978 131.697L253.6 140.747L253.672 140.742C254.351 139.072 256.29 137.351 259.45 137.134C264.371 136.796 267.206 140.245 267.593 145.884C267.983 151.559 265.503 155.374 260.511 155.717C257.422 155.929 255.255 154.851 254.25 152.827L254.106 152.837L254.309 155.782ZM254.128 148.433C254.333 151.414 256.153 152.696 259.278 152.482C262.726 152.245 264.054 150.566 263.75 146.148C263.449 141.766 261.868 140.287 258.456 140.522C255.332 140.736 253.704 142.256 253.909 145.237L254.128 148.433ZM274.326 154.407L270.448 154.673L268.794 130.61L272.673 130.343L274.326 154.407ZM285.232 154.018C279.342 154.423 276.32 150.878 275.937 145.311C275.557 139.78 278.605 135.817 283.92 135.452C288.733 135.122 292.306 137.763 292.642 142.647C292.706 143.581 292.665 144.558 292.594 145.104L279.629 145.995C279.997 149.254 281.296 150.824 285.031 150.568C288.012 150.363 289.092 149.278 288.981 147.662L288.961 147.375L292.804 147.111L292.827 147.434C293.078 151.097 290.045 153.687 285.232 154.018ZM284.073 138.725C280.697 138.957 279.513 140.627 279.487 143.407L288.933 142.758C288.867 139.695 287.126 138.516 284.073 138.725ZM300.786 152.949C297.59 153.169 294.998 151.687 294.784 148.562C294.581 145.617 296.63 143.925 300.4 143.125L306.585 141.761L306.519 140.792C306.336 138.134 305.06 137.428 302.259 137.62C299.422 137.815 298.37 138.79 298.533 141.16L298.57 141.699L294.835 141.955L294.81 141.596C294.536 137.61 297.463 134.522 302.24 134.193C307.232 133.85 309.954 136.695 310.252 141.04L310.998 151.887L307.406 152.133L307.214 149.332L307.034 149.344C306.108 151.104 304.162 152.717 300.786 152.949ZM298.535 148.016C298.631 149.417 299.569 149.93 301.831 149.774C304.345 149.601 307.042 148.406 306.795 144.814L306.773 144.491L301.157 145.743C299.13 146.171 298.444 146.687 298.535 148.016ZM320.662 151.583C315.994 151.904 313.696 148.923 313.417 144.864L312.659 133.838L316.538 133.572L317.249 143.915C317.468 147.112 318.781 148.357 321.87 148.145C324.851 147.94 326.45 146.531 326.208 143.011L325.517 132.955L329.396 132.688L330.622 150.538L327.031 150.785L326.786 147.229L326.643 147.239C325.921 149.346 324.146 151.344 320.662 151.583Z" fill="#052438"/>
<path d="M229.942 512.7L221.392 512.157L222.919 488.086L231.47 488.628C238.907 489.1 243.358 494 242.886 501.437C242.414 508.874 237.379 513.172 229.942 512.7ZM231.249 492.113L226.578 491.817L225.493 508.918L230.163 509.215C235.912 509.58 238.362 507.354 238.754 501.175C239.146 494.995 236.997 492.478 231.249 492.113ZM249.322 514.29C246.124 514.087 243.75 512.277 243.949 509.152C244.136 506.206 246.389 504.798 250.232 504.5L256.542 503.963L256.604 502.993C256.773 500.334 255.601 499.466 252.799 499.289C249.961 499.108 248.79 499.936 248.639 502.307L248.605 502.846L244.869 502.609L244.892 502.25C245.145 498.262 248.453 495.586 253.231 495.889C258.225 496.206 260.549 499.384 260.273 503.731L259.584 514.581L255.991 514.353L256.169 511.551L255.99 511.539C254.84 513.162 252.699 514.505 249.322 514.29ZM247.739 509.104C247.65 510.505 248.512 511.137 250.775 511.28C253.29 511.44 256.121 510.61 256.349 507.017L256.369 506.693L250.638 507.196C248.572 507.353 247.824 507.774 247.739 509.104ZM269.843 515.232C265.855 514.979 263.865 513.374 264.12 509.35L264.7 500.224L261.718 500.035L261.923 496.801L264.977 496.995L266.083 492.629L269.065 492.818L268.785 497.237L274.174 497.579L273.969 500.812L268.58 500.47L268.012 509.416C267.894 511.285 268.663 511.658 271.071 511.811L273.262 511.95L273.062 515.112C272.296 515.243 271.065 515.31 269.843 515.232ZM279.743 516.221C276.545 516.018 274.171 514.208 274.369 511.082C274.556 508.136 276.81 506.728 280.652 506.431L286.963 505.894L287.025 504.923C287.193 502.265 286.022 501.397 283.22 501.219C280.381 501.039 279.211 501.866 279.06 504.238L279.026 504.777L275.289 504.539L275.312 504.18C275.565 500.192 278.873 497.516 283.652 497.82C288.646 498.137 290.969 501.314 290.693 505.661L290.005 516.511L286.412 516.283L286.59 513.481L286.41 513.47C285.261 515.092 283.12 516.435 279.743 516.221ZM278.16 511.034C278.071 512.435 278.933 513.067 281.196 513.211C283.711 513.371 286.541 512.54 286.769 508.947L286.79 508.624L281.059 509.126C278.992 509.284 278.244 509.705 278.16 511.034ZM315.869 518.153L299.162 517.093L300.69 493.021L304.57 493.267L303.264 513.854L316.09 514.668L315.869 518.153ZM322.083 498.347L318.238 498.103L318.453 494.148L322.333 494.395L322.083 498.347ZM320.842 518.468L316.962 518.222L318.102 500.258L321.982 500.505L320.842 518.468ZM331.019 519.114C327.031 518.861 325.04 517.256 325.296 513.232L325.875 504.106L322.893 503.917L323.098 500.684L326.152 500.877L327.259 496.511L330.241 496.7L329.96 501.119L335.35 501.461L335.144 504.695L329.755 504.353L329.187 513.299C329.069 515.167 329.839 515.54 332.246 515.693L334.438 515.832L334.237 518.994C333.471 519.126 332.24 519.192 331.019 519.114ZM343.41 520.261C337.518 519.887 334.989 515.975 335.342 510.407C335.693 504.874 339.236 501.347 344.553 501.685C349.368 501.99 352.562 505.079 352.252 509.965C352.193 510.899 352.024 511.862 351.882 512.394L338.912 511.571C338.848 514.85 339.929 516.578 343.665 516.815C346.647 517.004 347.861 516.071 347.963 514.454L347.982 514.167L351.826 514.411L351.805 514.734C351.573 518.399 348.225 520.567 343.41 520.261ZM344.274 504.949C340.897 504.735 339.503 506.234 339.112 508.987L348.561 509.586C348.898 506.541 347.328 505.143 344.274 504.949ZM357.847 520.817L353.967 520.571L355.107 502.607L358.663 502.832L358.483 505.671L358.663 505.682C359.486 504.075 361.23 502.743 363.853 502.909C367.589 503.146 368.853 505.968 368.641 509.309L368.566 510.495L364.686 510.249L364.731 509.53C364.882 507.159 364.254 506.253 361.99 506.11C359.655 505.962 358.736 506.805 358.585 509.176L357.847 520.817ZM374.075 522.207C370.878 522.005 368.504 520.195 368.702 517.069C368.889 514.123 371.143 512.715 374.985 512.417L381.296 511.88L381.357 510.91C381.526 508.251 380.355 507.383 377.552 507.206C374.714 507.025 373.543 507.853 373.393 510.224L373.359 510.763L369.622 510.526L369.645 510.167C369.898 506.179 373.206 503.503 377.985 503.806C382.979 504.123 385.302 507.301 385.026 511.648L384.338 522.498L380.745 522.27L380.923 519.468L380.743 519.456C379.594 521.079 377.453 522.422 374.075 522.207ZM372.493 517.021C372.404 518.422 373.265 519.054 375.529 519.197C378.044 519.357 380.874 518.527 381.102 514.934L381.123 514.611L375.391 515.113C373.325 515.27 372.577 515.691 372.493 517.021ZM395.251 523.587C389.682 523.234 386.76 519.261 387.111 513.728C387.465 508.159 390.971 504.63 396.576 504.986C401.282 505.285 404.331 508.4 404.06 512.675L404.039 512.999L400.195 512.755L400.209 512.539C400.375 509.916 399.085 508.644 396.103 508.455C392.654 508.236 391.202 510.092 390.955 513.972C390.709 517.852 391.918 519.841 395.367 520.06C398.349 520.249 399.787 519.186 399.953 516.563L399.967 516.348L403.811 516.591L403.791 516.915C403.522 521.154 400.065 523.893 395.251 523.587ZM407.281 530.086C406.311 530.025 405.206 529.81 404.607 529.592L404.808 526.43L407.251 526.585C408.796 526.683 409.35 526.466 410.01 525.173L410.788 523.708L404.311 505.838L408.586 506.109L411.63 514.995L413 518.978L413.287 518.996L415.007 515.21L418.826 506.759L423.101 507.03L413.39 526.47C411.86 529.547 410.083 530.264 407.281 530.086Z" fill="#052438"/>
<rect x="137.845" y="233.784" width="601.639" height="257.665" rx="22.5695" transform="rotate(2.60342 137.845 233.784)" fill="#157A3F" stroke="white" stroke-width="4"/>
<rect x="167.734" y="343.82" width="531.93" height="52.8245" rx="26.4122" transform="rotate(2.60342 167.734 343.82)" fill="#E6ECF2"/>
<rect x="164.773" y="408.861" width="441.023" height="52.8245" rx="26.4122" transform="rotate(2.60342 164.773 408.861)" fill="#E6ECF2"/>
<path d="M174.806 306.935L169.814 306.708L182.69 277.632L189.538 277.944L199.723 308.068L194.554 307.833L191.899 300.009L178.16 299.385L174.806 306.935ZM183.481 287.496L180.033 295.176L190.416 295.648L187.679 287.687L186.028 282.123L185.674 282.107L183.481 287.496ZM205.59 308.335L200.819 308.118L202.165 278.518L206.936 278.735L205.59 308.335ZM221.857 309.075L217.086 308.858L218.432 279.257L239.417 280.212L239.222 284.497L223.008 283.76L222.593 292.905L238.144 293.612L237.947 297.942L222.396 297.235L221.857 309.075ZM248.729 310.739C242.985 310.478 240.598 306.518 240.825 301.526L241.442 287.963L246.213 288.18L245.634 300.903C245.456 304.835 246.883 306.538 250.683 306.711C254.35 306.878 256.498 305.382 256.695 301.052L257.258 288.682L262.029 288.899L261.031 310.856L256.613 310.655L256.812 306.281L256.635 306.273C255.46 308.743 253.014 310.934 248.729 310.739ZM269.616 311.246L264.845 311.029L265.843 289.072L270.217 289.271L270.03 293.38L270.207 293.388C271.33 291.092 273.772 288.99 278.057 289.185C283.756 289.444 286.154 293.183 285.927 298.175L285.3 311.959L280.529 311.742L281.107 299.019C281.286 295.087 280.123 293.396 276.103 293.213C272.215 293.036 270.38 294.458 270.193 298.567L269.616 311.246ZM297.67 312.965C291.397 312.679 288.198 308.063 288.515 301.082C288.831 294.146 292.391 289.837 298.444 290.112C302.332 290.289 304.589 292.251 305.47 294.283L305.603 294.289L306.105 283.244L310.832 283.459L309.486 313.059L305.113 312.86L305.277 309.238L305.101 309.23C303.926 311.7 301.426 313.135 297.67 312.965ZM293.287 301.299C293.04 306.733 294.674 308.755 298.915 308.948C302.803 309.125 305.002 307.498 305.169 303.832L305.348 299.9C305.514 296.233 303.472 294.413 299.584 294.237C295.387 294.046 293.532 295.909 293.287 301.299ZM319.07 313.938C315.138 313.759 312.182 311.588 312.357 307.744C312.522 304.122 315.259 302.342 319.972 301.893L327.711 301.094L327.766 299.901C327.914 296.631 326.456 295.591 323.01 295.435C319.52 295.276 318.1 296.318 317.968 299.234L317.938 299.897L313.343 299.688L313.363 299.246C313.586 294.342 317.59 290.982 323.466 291.25C329.607 291.529 332.531 295.38 332.288 300.726L331.681 314.068L327.263 313.867L327.42 310.421L327.199 310.411C325.824 312.43 323.223 314.126 319.07 313.938ZM317.012 307.602C316.934 309.325 318.006 310.082 320.789 310.209C323.882 310.349 327.34 309.267 327.541 304.849L327.559 304.451L320.53 305.194C317.996 305.433 317.086 305.967 317.012 307.602ZM340.138 314.453L335.367 314.236L336.365 292.279L340.739 292.478L340.552 296.586L340.729 296.594C341.851 294.299 344.249 292.194 348.446 292.385C352.29 292.56 354.595 294.436 355.529 297.267L355.661 297.273C356.782 295.022 359.137 292.871 363.467 293.068C369.122 293.325 371.476 297.063 371.249 302.055L370.622 315.839L365.85 315.622L366.429 302.898C366.608 298.966 365.489 297.277 361.513 297.097C357.89 296.932 356.143 298.358 355.96 302.378L355.38 315.146L350.609 314.929L351.187 302.205C351.366 298.273 350.247 296.584 346.271 296.404C342.648 296.239 340.901 297.665 340.721 301.641L340.138 314.453ZM383.962 316.888C376.717 316.559 373.524 311.809 373.835 304.962C374.145 298.158 378.418 293.748 384.957 294.045C390.877 294.315 394.869 298.038 394.596 304.046C394.543 305.195 394.357 306.382 394.194 307.038L378.245 306.313C378.239 310.342 379.605 312.44 384.199 312.649C387.866 312.816 389.336 311.643 389.427 309.655L389.443 309.302L394.17 309.516L394.152 309.914C393.947 314.42 389.882 317.157 383.962 316.888ZM384.685 298.062C380.533 297.873 378.854 299.745 378.434 303.134L390.053 303.663C390.401 299.915 388.441 298.233 384.685 298.062ZM401.706 317.252L396.935 317.035L397.933 295.078L402.307 295.277L402.12 299.386L402.297 299.394C403.419 297.098 405.861 294.996 410.147 295.191C415.846 295.45 418.244 299.189 418.017 304.181L417.39 317.965L412.619 317.749L413.197 305.025C413.376 301.093 412.213 299.402 408.193 299.219C404.305 299.042 402.47 300.464 402.283 304.573L401.706 317.252ZM430.005 318.539C425.101 318.316 422.621 316.388 422.846 311.44L423.357 300.219L419.69 300.052L419.87 296.076L423.626 296.246L424.889 290.859L428.556 291.025L428.309 296.459L434.936 296.761L434.755 300.737L428.128 300.436L427.628 311.436C427.523 313.734 428.477 314.175 431.437 314.31L434.132 314.432L433.955 318.32C433.017 318.499 431.507 318.607 430.005 318.539ZM442.186 319.536C438.254 319.357 435.298 317.186 435.473 313.342C435.637 309.72 438.375 307.94 443.088 307.491L450.827 306.692L450.881 305.499C451.03 302.229 449.572 301.189 446.126 301.033C442.636 300.874 441.216 301.916 441.084 304.832L441.054 305.495L436.459 305.286L436.479 304.844C436.702 299.94 440.706 296.58 446.582 296.848C452.723 297.127 455.647 300.978 455.404 306.324L454.797 319.666L450.379 319.465L450.536 316.019L450.315 316.009C448.939 318.028 446.339 319.724 442.186 319.536ZM440.128 313.2C440.049 314.923 441.122 315.68 443.905 315.807C446.998 315.947 450.456 314.865 450.657 310.447L450.675 310.049L443.646 310.792C441.112 311.031 440.202 311.565 440.128 313.2ZM463.254 320.051L458.482 319.834L459.828 290.234L464.6 290.451L463.254 320.051ZM476.131 321.079C469.725 320.788 466.482 318.117 466.725 312.771L466.729 312.683L471.324 312.892L471.288 313.687C471.179 316.073 472.199 317.005 476.396 317.195C479.931 317.356 480.63 316.591 480.704 314.956C480.784 313.189 479.748 312.611 476.549 311.89L473.173 311.161C469.274 310.275 466.88 308.395 467.061 304.419C467.242 300.443 470.631 297.941 476.375 298.202C481.544 298.437 485.315 301.176 485.088 306.169L485.07 306.566L480.519 306.359L480.543 305.829C480.636 303.797 479.995 302.307 476.063 302.128C472.573 301.969 471.692 302.859 471.615 304.538C471.539 306.217 472.312 306.739 475.376 307.498L479.055 308.374C483.258 309.406 485.381 311.406 485.216 315.029C485.032 319.093 481.698 321.332 476.131 321.079Z" fill="white"/>
</g>
<defs>
<clipPath id="clip0_16873_3527">
<rect width="864" height="761" fill="white"/>
</clipPath>
</defs>
</svg>
