<svg width="477" height="477" viewBox="0 0 477 477" fill="none" xmlns="http://www.w3.org/2000/svg">
<path fill-rule="evenodd" clip-rule="evenodd" d="M226.017 30.0257C233.993 27.4341 242.585 27.4341 250.561 30.0257C256.314 31.8949 260.72 35.0634 264.191 38.0107C267.353 40.6947 270.804 44.1462 274.347 47.6903L302.594 75.9369C304.433 77.7762 305.354 78.6909 306.051 79.3272L306.104 79.3751L306.175 79.3785C307.118 79.4216 308.417 79.4264 311.018 79.4264L346.147 79.4263C351.158 79.4257 356.039 79.4252 360.172 79.7629C364.711 80.1337 370.067 81.0087 375.457 83.7548C382.929 87.5622 389.004 93.6375 392.812 101.11C395.558 106.499 396.433 111.855 396.804 116.394C397.141 120.527 397.141 125.408 397.14 130.419L397.14 165.549C397.14 168.15 397.145 169.448 397.188 170.391L397.191 170.462L397.239 170.515C397.876 171.212 398.79 172.134 400.63 173.973L428.877 202.22C432.421 205.763 435.872 209.214 438.556 212.375C441.503 215.847 444.672 220.253 446.541 226.006C449.132 233.982 449.132 242.573 446.541 250.549C444.672 256.302 441.503 260.708 438.556 264.18C435.872 267.341 432.42 270.792 428.876 274.335L400.63 302.582C398.79 304.421 397.876 305.343 397.239 306.04L397.191 306.093L397.188 306.164C397.145 307.107 397.14 308.405 397.14 311.006L397.14 346.138C397.141 351.148 397.141 356.028 396.804 360.16C396.433 364.699 395.558 370.055 392.812 375.445C389.004 382.917 382.929 388.993 375.457 392.8C370.067 395.546 364.711 396.421 360.172 396.792C356.04 397.13 351.158 397.129 346.148 397.129L311.018 397.128C308.417 397.128 307.118 397.133 306.175 397.176L306.104 397.18L306.051 397.228C305.354 397.864 304.433 398.779 302.594 400.618L274.346 428.865C270.803 432.409 267.353 435.86 264.192 438.544C260.72 441.491 256.314 444.66 250.561 446.529C242.585 449.121 233.993 449.121 226.017 446.529C220.264 444.66 215.859 441.492 212.387 438.544C209.225 435.86 205.774 432.409 202.231 428.865L173.985 400.618C172.145 398.779 171.224 397.864 170.527 397.228L170.474 397.18L170.403 397.176C169.46 397.133 168.162 397.128 165.56 397.128L130.429 397.129C125.418 397.129 120.538 397.13 116.406 396.792C111.867 396.421 106.511 395.546 101.122 392.8C93.6492 388.993 87.5739 382.917 83.7665 375.445C81.0204 370.055 80.1454 364.699 79.7746 360.16C79.4369 356.027 79.4375 351.147 79.438 346.135L79.4381 311.006C79.4381 308.405 79.4334 307.107 79.3902 306.164L79.3869 306.093L79.3389 306.04C78.7026 305.343 77.7879 304.421 75.9486 302.582L47.7016 274.335C44.1576 270.792 40.7063 267.341 38.0224 264.18C35.0751 260.708 31.9066 256.302 30.0374 250.549C27.4459 242.573 27.4459 233.982 30.0374 226.006C31.9066 220.253 35.0751 215.847 38.0224 212.375C40.7063 209.214 44.1577 205.763 47.7017 202.22L75.9486 173.973C77.7879 172.134 78.7026 171.212 79.3389 170.515L79.3869 170.462L79.3902 170.391C79.4334 169.448 79.4381 168.15 79.4381 165.549L79.438 130.419C79.4375 125.408 79.4369 120.528 79.7746 116.394C80.1454 111.855 81.0204 106.499 83.7665 101.11C87.5739 93.6375 93.6492 87.5622 101.122 83.7548C106.511 81.0087 111.867 80.1337 116.406 79.7629C120.539 79.4252 125.42 79.4257 130.431 79.4263L165.56 79.4264C168.162 79.4264 169.46 79.4216 170.403 79.3785L170.474 79.3751L170.527 79.3272C171.224 78.6909 172.145 77.7762 173.985 75.9369L202.232 47.6898C205.775 44.146 209.225 40.6944 212.387 38.0107C215.858 35.0634 220.264 31.8949 226.017 30.0257ZM238.287 184.665C229.062 184.665 221.26 190.974 219.055 199.542C216.321 210.163 205.496 216.556 194.876 213.823C184.256 211.089 177.862 200.264 180.596 189.644C187.207 163.955 210.503 144.952 238.287 144.952C271.186 144.952 297.856 171.622 297.856 204.521C297.856 223.016 288.831 235.285 279.379 244.408C275.55 248.103 271.189 251.718 267.27 254.966L265.567 256.379C260.992 260.185 256.614 263.917 252.328 268.203C244.573 275.957 232.001 275.957 224.247 268.203C216.492 260.448 216.492 247.876 224.247 240.122C229.889 234.479 235.439 229.784 240.171 225.848L241.988 224.338C246.05 220.966 249.132 218.408 251.8 215.833C257.24 210.583 258.143 207.96 258.143 204.521C258.143 193.555 249.253 184.665 238.287 184.665ZM258.148 313.731C258.148 324.698 249.258 333.588 238.292 333.588C227.326 333.588 218.436 324.698 218.436 313.731C218.436 302.765 227.326 293.875 238.292 293.875C249.258 293.875 258.148 302.765 258.148 313.731Z" fill="#0496FF"/>
<circle cx="235.864" cy="240.71" r="115.528" fill="#0496FF"/>
<path fill-rule="evenodd" clip-rule="evenodd" d="M165.081 190.271C183.2 172.168 209.2 154.034 229.372 163.325L199.219 193.49C198.543 194.167 197.961 194.749 197.457 195.303C186.62 207.226 186.624 225.435 197.468 237.353L197.585 237.476C198.808 238.754 200.037 240.039 201.346 241.229C213.267 252.062 231.469 252.059 243.387 241.223C243.941 240.719 244.523 240.136 245.2 239.459L248.406 236.253L277.503 265.344C278.416 266.258 278.613 266.459 278.738 266.596C280.545 268.584 281.446 271.081 281.446 273.602C281.447 278.459 284.77 282.539 289.266 283.693C288.498 285.079 287.559 286.398 286.451 287.617C286.117 287.984 285.702 288.4 284.872 289.229C284.043 290.058 283.628 290.474 283.26 290.808C275.314 298.03 263.18 298.03 255.234 290.808C254.867 290.474 254.452 290.058 253.622 289.229L248.414 284.021C242.734 289.7 239.895 292.54 236.831 294.058C231.002 296.947 224.159 296.947 218.33 294.058C215.267 292.54 212.427 289.7 206.747 284.021C199.569 293.592 184.827 292.263 179.476 281.562L175.497 273.604H165.081V304.854C165.081 310.606 160.417 315.27 154.664 315.27H133.831C128.078 315.27 123.414 310.606 123.414 304.854V190.27C123.414 184.517 128.078 179.854 133.831 179.854H154.664C160.417 179.854 165.081 184.518 165.081 190.271ZM154.664 294.249C154.664 300.002 150 304.665 144.247 304.665C138.494 304.665 133.831 300.002 133.831 294.249C133.831 288.496 138.494 283.832 144.247 283.832C150 283.832 154.664 288.496 154.664 294.249Z" fill="#D6EEFF"/>
<path fill-rule="evenodd" clip-rule="evenodd" d="M237.993 169.438C258.826 148.602 290.076 169.456 310.909 190.271C310.914 184.523 315.584 179.856 321.331 179.854H342.164C347.917 179.854 352.581 184.517 352.581 190.27V304.854C352.581 310.606 347.917 315.27 342.164 315.27H321.331C315.578 315.27 310.914 310.606 310.914 304.854V273.604L291.863 273.604C291.863 268.584 290.057 263.564 286.446 259.591C286.112 259.224 285.697 258.808 284.868 257.979L248.405 221.524L237.985 231.945C237.158 232.771 236.745 233.185 236.379 233.517C228.434 240.742 216.299 240.744 208.352 233.522C207.986 233.189 207.572 232.775 206.745 231.949C205.919 231.124 205.505 230.71 205.173 230.344C197.943 222.399 197.94 210.26 205.165 202.311C205.498 201.945 205.911 201.532 206.738 200.705L237.993 169.438ZM342.164 294.249C342.164 300.002 337.5 304.665 331.747 304.665C325.994 304.665 321.331 300.002 321.331 294.249C321.331 288.496 325.994 283.832 331.747 283.832C337.5 283.832 342.164 288.496 342.164 294.249Z" fill="#D6EEFF"/>
</svg>
