<svg width="66" height="66" viewBox="0 0 66 66" fill="none" xmlns="http://www.w3.org/2000/svg">
<rect width="65.9348" height="65.9348" fill="#0496FF"/>
<path d="M17.3438 49.402L24.2505 51.1288V48.4727C23.981 48.2505 23.7177 48.0258 23.4635 47.7988C20.7903 48.2767 18.7462 48.8915 17.3438 49.402Z" fill="white"/>
<path d="M29.4831 37.5463L28.9039 40.4428L32.7235 39.1696C32.8133 39.1397 32.9067 39.1247 33.0002 39.1247C33.0936 39.1247 33.1871 39.1397 33.2769 39.1696L37.0965 40.4428L36.5173 37.5463C36.4685 37.3022 36.5259 37.0488 36.6753 36.8497L38.4672 34.4604L35.4537 33.8576C35.2426 33.8154 35.0545 33.6969 34.9253 33.5246L33.0001 30.958L31.0751 33.5247C30.9459 33.697 30.7578 33.8155 30.5467 33.8578L27.5332 34.4605L29.3251 36.8497C29.4745 37.0489 29.5319 37.3022 29.4831 37.5463Z" fill="white"/>
<path d="M31.2495 14.6244V19.6487L32.6663 19.0653C32.8797 18.9775 33.1192 18.9775 33.3326 19.0653L34.7495 19.6487V14.6244C34.7495 14.1412 35.1412 13.7494 35.6245 13.7494H37.1962L32.9995 8.95312L28.8027 13.7494H30.3745C30.8578 13.7494 31.2495 14.1412 31.2495 14.6244Z" fill="white"/>
<path d="M33 48.6201C35.1291 47.3939 39.7004 44.4482 40.9903 42.1909C42.3085 39.8839 43.1698 31.9425 43.4541 28.3333L33.0001 24.3125L22.5459 28.3333C22.8306 31.9428 23.692 39.885 25.0097 42.1909C26.3011 44.4507 30.8712 47.3948 33 48.6201ZM25.1827 33.5628C25.2899 33.2821 25.5338 33.0761 25.8285 33.0171L29.8757 32.2077L32.3001 28.975C32.4653 28.7547 32.7247 28.625 33.0001 28.625C33.2755 28.625 33.5348 28.7548 33.7001 28.975L36.1245 32.2076L40.1717 33.017C40.4663 33.076 40.7102 33.282 40.8174 33.5627C40.9246 33.8434 40.8804 34.1595 40.7001 34.3999L38.3098 37.587L39.1081 41.5783C39.1693 41.8842 39.0629 42.1996 38.8292 42.4059C38.6669 42.5491 38.4602 42.6249 38.2501 42.6249C38.1574 42.6249 38.064 42.6102 37.9735 42.5801L33.0001 40.9224L28.0268 42.5802C27.7309 42.6789 27.4049 42.6126 27.171 42.406C26.9372 42.1996 26.831 41.8842 26.8921 41.5784L27.6905 37.5871L25.3001 34.4C25.1197 34.1596 25.0754 33.8435 25.1827 33.5628Z" fill="white"/>
<path d="M46.9995 19.8744V24.6928L48.2076 25.1903C48.5603 25.3355 48.7783 25.6925 48.7464 26.0726C48.7163 26.4303 48.2693 31.6468 47.4034 36.6452C48.7396 37.0429 49.7715 37.4342 50.4995 37.743V19.8744C50.4995 19.3912 50.8912 18.9994 51.3745 18.9994H52.9462L48.7495 14.2031L44.5527 18.9994H46.1245C46.6077 18.9994 46.9995 19.3912 46.9995 19.8744Z" fill="white"/>
<path d="M13.7494 45.3799C11.4457 46.2434 9.89555 47.2187 9.04199 47.8448L11.6494 49.8003C11.9244 50.0066 12.0531 50.3546 11.9786 50.6901L10.8162 55.9211C11.3855 55.4918 12.0701 55.0242 12.8711 54.557C14.5324 53.5879 16.9335 52.4952 20.0178 51.8756L14.4122 50.4741L14.4125 50.4727C14.3336 50.453 14.2567 50.4228 14.1844 50.3807C13.9155 50.224 13.7494 49.9366 13.7494 49.6253V45.3799Z" fill="white"/>
<path d="M22.3847 43.941C24.2603 47.2231 31.2391 51.1722 32.9999 52.1319C34.7606 51.172 41.7412 47.2205 43.6153 43.941C45.5206 40.6066 46.6811 29.3679 46.9452 26.5635L32.9999 20.8213L19.0547 26.5635C19.319 29.3671 20.4798 40.6076 22.3847 43.941ZM21.3109 26.9334L32.6859 22.5584C32.8881 22.4806 33.112 22.4806 33.3141 22.5584L44.6891 26.9334C45.0479 27.0714 45.2746 27.4274 45.2478 27.8108C45.214 28.2969 44.3976 39.7552 42.5096 43.0591C40.5995 46.4019 33.715 50.2296 33.4228 50.3909C33.2914 50.4638 33.1457 50.5001 33 50.5001C32.8543 50.5001 32.7086 50.4638 32.577 50.391C32.2849 50.2297 25.4005 46.402 23.4903 43.0592C21.6024 39.7553 20.786 28.297 20.7522 27.8109C20.7254 27.4274 20.9521 27.0714 21.3109 26.9334Z" fill="white"/>
<path d="M52.2507 49.6255C52.2507 49.9374 52.0847 50.2256 51.815 50.3823C51.743 50.424 51.6663 50.454 51.5878 50.4736L51.588 50.4742L45.9824 51.8757C49.0667 52.4954 51.4678 53.588 53.1291 54.5571C53.9299 55.0242 54.6147 55.4919 55.184 55.9212L54.0216 50.6903C53.947 50.3548 54.0758 50.0067 54.3508 49.8004L56.9583 47.8448C56.1054 47.2192 54.5552 46.2436 52.2508 45.3799V49.6255H52.2507Z" fill="white"/>
<path d="M15.4995 19.8744V37.7431C16.2273 37.4343 17.2593 37.043 18.5955 36.6453C17.7296 31.647 17.2826 26.4305 17.2525 26.0727C17.2206 25.6925 17.4386 25.3356 17.7913 25.1904L18.9995 24.6928V19.8744C18.9995 19.3912 19.3911 18.9994 19.8745 18.9994H21.4462L17.2495 14.2031L13.0527 18.9994H14.6245C15.1078 18.9994 15.4995 19.3912 15.4995 19.8744Z" fill="white"/>
<path d="M50.5001 39.6617C49.9225 39.3867 48.778 38.8919 47.0842 38.377C46.5591 41.0353 45.9094 43.453 45.1348 44.8086C44.8524 45.3029 44.4776 45.8044 44.0371 46.3049C47.0958 46.9345 49.2475 47.7099 50.5001 48.2419V39.6617Z" fill="white"/>
<path d="M41.75 48.4727V51.1288L48.6567 49.402C47.2544 48.8916 45.2103 48.2767 42.537 47.7988C42.2828 48.0258 42.0195 48.2505 41.75 48.4727Z" fill="white"/>
<path d="M18.9159 38.377C17.2227 38.8918 16.0783 39.3865 15.5 39.6618V48.2418C16.7526 47.7099 18.9042 46.9345 21.963 46.3048C21.5225 45.8043 21.1478 45.3028 20.8653 44.8085C20.0907 43.453 19.441 41.0353 18.9159 38.377Z" fill="white"/>
</svg>
