<svg width="63" height="63" viewBox="0 0 63 63" fill="none" xmlns="http://www.w3.org/2000/svg">
<g clip-path="url(#clip0_567_192)">
<rect x="1" y="1" width="60" height="61" rx="10" fill="#F4F9FF"/>
<path d="M32.6926 21.3663L42.6804 20.218V38.2707L32.6926 42.3567V21.3396V21.3663ZM31.4375 16.3457L17.6309 17.5207V39.606L31.4375 46.496L45.2441 39.606V17.5207L31.4375 16.3457Z" fill="#052438"/>
<path d="M52.5352 62.8682H10.3408C4.65258 62.8682 0.00585938 58.2481 0.00585938 52.5332V10.3389C0.00585938 4.62392 4.62587 0.00390625 10.3408 0.00390625H52.5352C58.2234 0.00390625 62.8701 4.62392 62.8701 10.3389V52.5332C62.8701 58.2214 58.2501 62.8682 52.5352 62.8682ZM10.3408 2.56761C6.06796 2.56761 2.56957 6.06601 2.56957 10.3389V52.5332C2.56957 56.8061 6.04125 60.2777 10.3141 60.2777H52.5085C56.7813 60.2777 60.253 56.8061 60.253 52.5332V10.3389C60.253 6.06601 56.7813 2.59432 52.5085 2.59432H10.3408V2.56761Z" fill="#052438"/>
</g>
<defs>
<clipPath id="clip0_567_192">
<rect width="62.8642" height="62.8642" fill="white"/>
</clipPath>
</defs>
</svg>
